<svg xmlns="http://www.w3.org/2000/svg" viewBox="0 0 154.84 154.84"><defs><style>.cls-1{isolation:isolate;}.cls-2{fill:#ff5151;}.cls-3,.cls-4{fill:none;stroke-dasharray:68 23 5 9;}.cls-3{stroke:#ff5151;}.cls-3,.cls-4,.cls-8{stroke-linecap:round;stroke-linejoin:round;stroke-width:3px;}.cls-4,.cls-8{stroke:#1c1c1c;}.cls-4,.cls-6{mix-blend-mode:multiply;}.cls-5{mix-blend-mode:screen;}.cls-7,.cls-8{fill:#fff;}.cls-8{stroke-dasharray:64 32 5 19;}</style></defs><g class="cls-1"><g id="OBJECTS"><rect class="cls-2" x="26.95" y="19.73" width="104.44" height="104.44" rx="24.27"/><path class="cls-2" d="M109.21,25.79,58.14,21.54A23.32,23.32,0,0,0,33.3,41.91L27.14,93.05c-1.47,12.27,8.46,23.26,22.18,24.56l16.87,1.59,10.73,18.16,12.75-15.94L106.54,123c13.72,1.3,24.85-7.82,24.85-20.37V50.34C131.39,37.8,121.46,26.81,109.21,25.79Z"/><path class="cls-3" d="M105.68,21.76l-50.84-4.2A23.4,23.4,0,0,0,30,37.93L23.61,89c-1.53,12.25,8.3,23.23,22,24.52l16.8,1.58L73,133.26l12.78-15.94,16.8,1.58c13.67,1.29,24.8-7.83,24.85-20.36l.24-52.26C127.7,33.75,117.87,22.77,105.68,21.76Z"/><path class="cls-4" d="M105.68,21.76l-50.84-4.2A23.4,23.4,0,0,0,30,37.93L23.61,89c-1.53,12.25,8.3,23.23,22,24.52l16.8,1.58L73,133.26l12.78-15.94,16.8,1.58c13.67,1.29,24.8-7.83,24.85-20.36l.24-52.26C127.7,33.75,117.87,22.77,105.68,21.76Z"/><g class="cls-5"><path class="cls-2" d="M95.56,25.74,55.67,22.92A19.12,19.12,0,0,0,35.81,39.11L29.94,79.2c-1.4,9.62,6.35,18.15,17.32,19l13.49,1.11,18.78,1.54L93,102c11,.9,19.87-6.35,19.87-16.19v-41C112.88,34.94,105.13,26.41,95.56,25.74Z"/></g><g class="cls-6"><path class="cls-2" d="M103.28,113c-.6,0-1.2,0-1.81-.08l-4.64-.44a1.5,1.5,0,1,1,.28-3l4.64.43c.51,0,1,.07,1.53.07,7.59,0,13.39-5.27,13.49-12.25l.53-39.05a1.48,1.48,0,0,1,1.52-1.48,1.5,1.5,0,0,1,1.48,1.52l-.53,39.05C119.65,106.5,112.56,113,103.28,113Z"/><path class="cls-2" d="M118.92,51.26h0a1.5,1.5,0,0,1-1.48-1.52l.06-4.31c0-.21,0-.4,0-.6a1.5,1.5,0,1,1,3-.13c0,.24,0,.49,0,.73l-.06,4.35A1.49,1.49,0,0,1,118.92,51.26Z"/></g><path class="cls-7" d="M35.86,54.14h-.18a1.51,1.51,0,0,1-1.32-1.66l.58-5a1.5,1.5,0,0,1,3,.34l-.58,5A1.49,1.49,0,0,1,35.86,54.14Z"/><path class="cls-7" d="M37.78,40.29a1.39,1.39,0,0,1-.44-.07,1.5,1.5,0,0,1-1-1.88A21,21,0,0,1,56.24,23.65c.56,0,1.14,0,1.7.07l41.73,3.5a1.5,1.5,0,0,1-.25,3l-41.73-3.5A18,18,0,0,0,39.22,39.23,1.51,1.51,0,0,1,37.78,40.29Z"/><path class="cls-8" d="M93.5,44.58A14.68,14.68,0,0,0,77.42,57.7c0,.22,0,.43,0,.64h-.06c0-.21.07-.41.1-.63a14.68,14.68,0,0,0-29.21-3h0C45.55,80.85,73.44,96.81,73.44,96.81s30.52-10,33.18-36.14h0A14.68,14.68,0,0,0,93.5,44.58Z"/></g></g></svg>