<svg xmlns="http://www.w3.org/2000/svg" viewBox="0 0 154.84 154.84"><defs><style>.cls-1{isolation:isolate;}.cls-2{fill:#009ce8;}.cls-10,.cls-3,.cls-4,.cls-8,.cls-9{fill:none;stroke-linecap:round;stroke-linejoin:round;stroke-width:3px;}.cls-3{stroke:#009ce8;}.cls-3,.cls-4{stroke-dasharray:68 23 5 9;}.cls-10,.cls-4,.cls-8,.cls-9{stroke:#1c1c1c;}.cls-4,.cls-6{mix-blend-mode:multiply;}.cls-5{mix-blend-mode:screen;}.cls-7{fill:#fff;}.cls-9{stroke-dasharray:6.03 22.9;}.cls-10{stroke-dasharray:34.14 17.07 2.67 10.14;}</style></defs><g class="cls-1"><g id="OBJECTS"><rect class="cls-2" x="26.95" y="19.73" width="104.44" height="104.44" rx="24.27"/><path class="cls-2" d="M109.21,25.79,58.14,21.54A23.32,23.32,0,0,0,33.3,41.91L27.14,93.05c-1.47,12.27,8.46,23.26,22.18,24.56l16.87,1.59,10.73,18.16,12.75-15.94L106.54,123c13.72,1.3,24.85-7.82,24.85-20.37V50.34C131.39,37.8,121.46,26.81,109.21,25.79Z"/><path class="cls-3" d="M105.68,21.76l-50.84-4.2A23.4,23.4,0,0,0,30,37.93L23.61,89c-1.53,12.25,8.3,23.23,22,24.52l16.8,1.58L73,133.26l12.78-15.94,16.8,1.58c13.67,1.29,24.8-7.83,24.85-20.36l.24-52.26C127.7,33.75,117.87,22.77,105.68,21.76Z"/><path class="cls-4" d="M105.68,21.76l-50.84-4.2A23.4,23.4,0,0,0,30,37.93L23.61,89c-1.53,12.25,8.3,23.23,22,24.52l16.8,1.58L73,133.26l12.78-15.94,16.8,1.58c13.67,1.29,24.8-7.83,24.85-20.36l.24-52.26C127.7,33.75,117.87,22.77,105.68,21.76Z"/><g class="cls-5"><path class="cls-2" d="M95.56,25.74,55.67,22.92A19.12,19.12,0,0,0,35.81,39.11L29.94,79.2c-1.4,9.62,6.35,18.15,17.32,19l13.49,1.11,18.78,1.54L93,102c11,.9,19.87-6.35,19.87-16.19v-41C112.88,34.94,105.13,26.41,95.56,25.74Z"/></g><g class="cls-6"><path class="cls-2" d="M103.28,113c-.6,0-1.2,0-1.81-.08l-4.64-.44a1.5,1.5,0,1,1,.28-3l4.64.43c.51,0,1,.07,1.53.07,7.59,0,13.39-5.27,13.49-12.25l.53-39.05a1.48,1.48,0,0,1,1.52-1.48,1.5,1.5,0,0,1,1.48,1.52l-.53,39.05C119.65,106.5,112.56,113,103.28,113Z"/><path class="cls-2" d="M118.92,51.26h0a1.5,1.5,0,0,1-1.48-1.52l.06-4.31c0-.21,0-.4,0-.6a1.5,1.5,0,1,1,3-.13c0,.24,0,.49,0,.73l-.06,4.35A1.49,1.49,0,0,1,118.92,51.26Z"/></g><path class="cls-7" d="M35.86,54.14h-.18a1.51,1.51,0,0,1-1.32-1.66l.58-5a1.5,1.5,0,0,1,3,.34l-.58,5A1.49,1.49,0,0,1,35.86,54.14Z"/><path class="cls-7" d="M37.78,40.29a1.39,1.39,0,0,1-.44-.07,1.5,1.5,0,0,1-1-1.88A21,21,0,0,1,56.24,23.65c.56,0,1.14,0,1.7.07l41.73,3.5a1.5,1.5,0,0,1-.25,3l-41.73-3.5A18,18,0,0,0,39.22,39.23,1.51,1.51,0,0,1,37.78,40.29Z"/><path class="cls-7" d="M93.47,94.23H83.59c-.15,0-.3-.07-.45-.08-1.28-.07-2.56-.13-3.84-.22a32.34,32.34,0,0,1-11.84-2.85,8,8,0,0,0-3.82-.81c-1,0-2,0-3.07,0a10.56,10.56,0,0,1-1.86-.18A2.42,2.42,0,0,1,56.65,88a11.05,11.05,0,0,1-.15-1.81q0-7.41,0-14.82c0-1.11,0-2.22,0-3.32a3.39,3.39,0,0,1,3.37-3.34,35.21,35.21,0,0,0,4-.34,4.41,4.41,0,0,0,3.37-2.46A11.71,11.71,0,0,1,70.2,58a40.72,40.72,0,0,1,3.39-2.47,8.67,8.67,0,0,0,3.26-3.07,53.35,53.35,0,0,0,2.35-5.3c.46-1.22.62-2.55,1-3.82A3.23,3.23,0,0,1,81.82,41h1.25c.17,0,.33.09.5.12a4.7,4.7,0,0,1,4.08,3.29A9.23,9.23,0,0,1,88,47a28.85,28.85,0,0,1-2.18,11c-.27.67-.6,1.31-.92,2l.26.05,13.09,1.65a17.39,17.39,0,0,1,2.71.43,4.3,4.3,0,0,1-.3,8.17l-.79.18a4.21,4.21,0,0,1,3.54,4.23,4.12,4.12,0,0,1-1.4,3.07,4.58,4.58,0,0,1-3.26,1.1,1,1,0,0,0,.33.17,3.94,3.94,0,0,1,2.78,3.57,4.21,4.21,0,0,1-2.37,4.11,5.88,5.88,0,0,1-3,.41c-.5,0-1-.05-1.57-.08.39.3.72.5,1,.76a3.94,3.94,0,0,1,.87,3.59,2.6,2.6,0,0,1-1,1.65A6.63,6.63,0,0,1,93.47,94.23Zm-45.24-4h3.93a2.38,2.38,0,0,0,2.38-2.37V67.26a2.38,2.38,0,0,0-2.38-2.37H48.23a2.37,2.37,0,0,0-2.37,2.37V87.89A2.37,2.37,0,0,0,48.23,90.26Z"/><path class="cls-8" d="M78.6,48.71q.32-.76.6-1.53c.46-1.22.62-2.55,1-3.82A3.21,3.21,0,0,1,81.83,41h1.24c.17,0,.33.09.5.12a4.7,4.7,0,0,1,4.08,3.29A9.23,9.23,0,0,1,88,47a28.85,28.85,0,0,1-2.18,11c-.27.67-.6,1.31-.92,2l.26.05,13.09,1.65a17.39,17.39,0,0,1,2.71.43,4.3,4.3,0,0,1-.3,8.17l-.79.18a4.21,4.21,0,0,1,3.54,4.23,4.12,4.12,0,0,1-1.4,3.07,4.58,4.58,0,0,1-3.26,1.1,1,1,0,0,0,.33.17,3.94,3.94,0,0,1,2.78,3.57,4.21,4.21,0,0,1-2.37,4.11,5.88,5.88,0,0,1-3,.41c-.5,0-1-.05-1.57-.08.39.3.72.5,1,.76a3.94,3.94,0,0,1,.87,3.59,2.6,2.6,0,0,1-1,1.65,6.63,6.63,0,0,1-2.39,1.19H83.59c-.15,0-.3-.07-.45-.08-1.28-.07-2.56-.13-3.84-.22a37.15,37.15,0,0,1-8-1.36"/><path class="cls-9" d="M57.41,65.83a3.57,3.57,0,0,1,2.51-1.14,35.21,35.21,0,0,0,4-.34,4.41,4.41,0,0,0,3.37-2.46A11.71,11.71,0,0,1,70.2,58c.37-.31.74-.6,1.12-.88"/><rect class="cls-10" x="45.86" y="64.89" width="8.68" height="25.38" rx="2.38"/></g></g></svg>