<svg xmlns="http://www.w3.org/2000/svg" viewBox="0 0 154.84 154.84"><defs><style>.cls-1{isolation:isolate;}.cls-2{fill:#d61516;}.cls-3,.cls-4,.cls-8,.cls-9{fill:none;stroke-linecap:round;stroke-linejoin:round;}.cls-3{stroke:#d61516;}.cls-3,.cls-4{stroke-width:3px;stroke-dasharray:68 23 5 9;}.cls-4{stroke:#1c1c1c;}.cls-4,.cls-6{mix-blend-mode:multiply;}.cls-5{mix-blend-mode:screen;}.cls-7{fill:#fff;}.cls-8,.cls-9{stroke:#000;}.cls-8{stroke-width:4px;}.cls-9{stroke-width:10px;}</style></defs><g class="cls-1"><g id="OBJECTS"><rect class="cls-2" x="26.95" y="25.09" width="104.44" height="104.44" rx="24.27"/><path class="cls-2" d="M109.21,31.15,58.14,26.9A23.32,23.32,0,0,0,33.3,47.27L27.14,98.41C25.67,110.68,35.6,121.67,49.32,123l16.87,1.59,10.73,18.15,12.75-15.93,16.87,1.59c13.72,1.3,24.85-7.82,24.85-20.37V55.7C131.39,43.16,121.46,32.16,109.21,31.15Z"/><path class="cls-3" d="M105.68,27.12l-50.84-4.2A23.4,23.4,0,0,0,30,43.28L23.61,94.39c-1.53,12.25,8.3,23.23,22,24.52l16.8,1.57L73,138.61l12.78-15.93,16.8,1.58c13.67,1.29,24.8-7.83,24.85-20.36l.24-52.26C127.7,39.11,117.87,28.13,105.68,27.12Z"/><path class="cls-4" d="M105.68,27.12l-50.84-4.2A23.4,23.4,0,0,0,30,43.28L23.61,94.39c-1.53,12.25,8.3,23.23,22,24.52l16.8,1.57L73,138.61l12.78-15.93,16.8,1.58c13.67,1.29,24.8-7.83,24.85-20.36l.24-52.26C127.7,39.11,117.87,28.13,105.68,27.12Z"/><g class="cls-5"><path class="cls-2" d="M95.56,31.1,55.67,28.28A19.12,19.12,0,0,0,35.81,44.46l-5.87,40.1c-1.4,9.62,6.35,18.15,17.32,19l13.49,1.11,18.78,1.54L93,107.37c11,.9,19.87-6.35,19.87-16.19v-41C112.88,40.3,105.13,31.77,95.56,31.1Z"/></g><g class="cls-6"><path class="cls-2" d="M103.28,118.4c-.6,0-1.2,0-1.81-.08l-4.64-.44a1.5,1.5,0,1,1,.28-3l4.64.43c.51,0,1,.07,1.53.07,7.59,0,13.39-5.27,13.49-12.25l.53-39.05a1.48,1.48,0,0,1,1.52-1.48,1.5,1.5,0,0,1,1.48,1.52l-.53,39.05C119.65,111.86,112.56,118.4,103.28,118.4Z"/><path class="cls-2" d="M118.92,56.62h0a1.5,1.5,0,0,1-1.48-1.52l.06-4.31c0-.21,0-.4,0-.6a1.5,1.5,0,1,1,3-.13c0,.24,0,.49,0,.73l-.06,4.35A1.5,1.5,0,0,1,118.92,56.62Z"/></g><path class="cls-7" d="M35.86,59.5h-.18a1.51,1.51,0,0,1-1.32-1.67l.58-5a1.5,1.5,0,0,1,3,.34l-.58,5A1.49,1.49,0,0,1,35.86,59.5Z"/><path class="cls-7" d="M37.78,45.65a1.39,1.39,0,0,1-.44-.07,1.51,1.51,0,0,1-1-1.88A21,21,0,0,1,56.24,29c.56,0,1.14,0,1.7.07l41.73,3.49A1.5,1.5,0,0,1,101,34.19a1.48,1.48,0,0,1-1.62,1.37L57.69,32.07A17.94,17.94,0,0,0,39.22,44.59,1.51,1.51,0,0,1,37.78,45.65Z"/><path d="M98.52,107.57c0,4.08-9.78,5.27-21.85,5.27s-21.85-1.19-21.85-5.27,9.78-9.51,21.85-9.51S98.52,103.49,98.52,107.57Z"/><path class="cls-8" d="M42.84,58.62c0,5.85,9.23,10.82,22.15,12.72"/><path class="cls-8" d="M88.34,71.34c12.93-1.9,22.16-6.87,22.16-12.72"/><line class="cls-9" x1="56.76" y1="83.52" x2="56.76" y2="72.68"/><line class="cls-9" x1="96.58" y1="83.52" x2="96.58" y2="72.68"/></g></g></svg>